<svg xmlns="http://www.w3.org/2000/svg" version="1.1" xmlns:xlink="http://www.w3.org/1999/xlink" xmlns:svgjs="http://svgjs.dev/svgjs" width="2000" height="2242" viewBox="0 0 2000 2242"><g transform="matrix(1,0,0,1,-3.115264797507507,0)"><svg viewBox="0 0 321 360" data-background-color="#050505" preserveAspectRatio="xMidYMid meet" height="2242" width="2000" xmlns="http://www.w3.org/2000/svg" xmlns:xlink="http://www.w3.org/1999/xlink"><g id="tight-bounds" transform="matrix(1,0,0,1,0.5,0)"><svg viewBox="0 0 320 360" height="360" width="320"><g><svg></svg></g><g><svg viewBox="0 0 320 360" height="360" width="320"><g><path d="M20.961 227.22l3.726 4.658-1.863-6.056c-0.466-2.795-3.726 0.466-1.863 1.398M25.153 224.425c1.397 2.329 2.795 4.658 2.795 6.987 0 3.261 2.795 4.658 5.123 5.589-3.261-3.726-5.124-13.974-7.918-12.576M204.017 26.929c7.918 0 15.371-0.932 23.756 0.931 20.495 5.124 37.729 15.371 49.374 29.811l32.606 52.169c1.397 13.042 4.192 27.482 3.726 43.319 3.261 0 2.795-4.658 6.521-5.59-3.726 9.316-5.59 20.961-6.521 34.469-2.329-7.453 0-18.632 0.466-24.687-3.261 5.124-5.124 1.397-5.124-0.932 0.466-3.726-1.397-3.261-2.795-4.658-5.124-4.658-8.384-9.782-12.11-17.7 2.329-6.055 2.795-14.905-4.658-19.563-2.329-1.397-5.124-3.726-6.521-7.453-1.863-5.124-5.124-11.179-4.193-19.097 0.466-2.329-6.987 5.124-11.179 1.863-18.166-12.576-36.332-27.016-58.224-39.127-11.645 0-20.029-4.192-24.221-9.316-3.726-4.658-0.932-10.713 4.658-11.179 3.261 0 6.987-0.932 9.782 0.932 0.466-1.863 2.329-4.192 4.657-4.192M157.904 16.215l0.932 0.466c4.658 0.932 6.987 7.453 12.11 5.124 0 3.261 0.466 6.521-0.466 8.85-1.397 3.726-5.59 3.726-8.85 3.726-31.208-1.863-49.374 11.179-68.471 22.358-5.124 3.261-10.713 5.59-14.906 9.782-20.029 18.632-41.921 35.866-47.045 70.335l-4.192 38.195c-0.466 4.192-5.124 8.384-4.192 13.508l3.26 22.824c-3.261-3.261-5.124 0.932-4.192 2.795 0.466 1.397 2.329 6.055 5.124 1.863 3.726 6.987 7.453 20.495 12.576 26.55 15.837 18.632 36.332 35.4 53.101 52.169 4.192-0.932 7.453-0.932 8.384-3.727 1.397 2.795-1.397 5.59-3.726 6.056 7.453 4.658 15.837 8.85 27.016 9.781 14.44 0.932 27.948 3.261 40.524 6.522 6.521-1.863 13.042-2.795 20.029-3.261 2.329 0 3.726-3.726 6.521-4.658l0.466-4.658c2.795 4.192 2.329-1.397 0.466-4.192 3.261 2.795 4.192 5.124 5.589 6.987 0-1.397 3.726-6.521 3.727-0.466l0.931-6.055c1.397-0.932 1.863 5.124 3.261 0.931 1.397-4.192 4.192-0.932 6.987-2.329-0.932 1.863-0.466 5.59 2.794 3.261l3.727-3.261c2.329 5.59 6.055 3.261 7.918 2.329 20.495-13.042 40.99-28.413 60.553-43.784l-0.466 6.055 2.329-7.453c2.329 2.329 4.192 0.466 5.124-0.931 2.795-4.658 6.521-9.316 12.577-13.508-7.453 20.029-16.303 35.866-27.482 48.908l-4.658 5.59c0 3.261-0.932 7.453-4.658 7.918-1.863 0.466-5.59-0.932-8.384 1.863-1.397 1.863 3.261 5.59-0.466 2.795-3.261-2.329-6.521 0-10.248 0.932-2.795 0.932 1.863 3.726 2.795 5.589 0.932 1.863 1.863 3.726 1.398 6.056l-5.124-5.59c-6.055 3.261-9.782 9.316-14.906 13.974-2.329 1.863-1.397 5.124-1.397 7.918-3.261 0-6.987-0.932-8.85 0.932-1.397 1.863-0.932 4.658-0.932 7.453-4.658-0.466-5.124-7.453-9.315-6.056-4.192 0.932-8.85 1.397-12.577 3.727 2.795 5.59-4.658 2.329-3.726 3.26-6.987-4.192-13.042-7.453-20.495-4.658-15.837-5.124-35.4-2.795-49.84-0.931 0-2.329 0.466-4.658-0.466-5.124-0.932 2.329-3.726 1.397-3.26 1.397-8.85-6.055-17.7-9.782-27.016-14.905-8.384 0.932-16.303-3.261-18.632-5.59-6.521-6.055-13.974-2.795-20.029-4.192-13.042-3.261-17.7-16.769-19.098-26.084-0.932-4.658-4.658-6.521-6.055-6.056-6.055-19.563-15.371-37.263-22.824-55.429-1.863-4.658-1.397-9.316-1.397-14.44 2.329 0.932 4.658 0.466 4.192-2.794-2.329-15.371-7.918-27.016-13.974-38.195 3.261-15.837 3.726-34.469 11.179-48.443 6.521-12.576 18.632-19.098 27.016-29.811 2.795-3.726 2.795-8.85 5.59-12.11 9.316-9.316 18.632-19.098 28.879-27.482 4.658-3.726 10.247 0 17.234-1.397 2.329-8.384 11.645-15.837 20.495-13.508 3.726 0.932 11.179-8.85 13.508-9.782 3.726-1.397 1.863 3.726 1.863 6.987 8.85-6.987 20.961-10.713 32.14-14.906" fill="#ffffff" fill-rule="nonzero" stroke="none" stroke-width="1" stroke-linecap="butt" stroke-linejoin="miter" stroke-miterlimit="10" stroke-dasharray="" stroke-dashoffset="0" font-family="none" font-weight="none" font-size="none" text-anchor="none" style="mix-blend-mode: normal" data-fill-palette-color="tertiary"></path></g><g transform="matrix(1,0,0,1,64,98.4859335038363)"><svg viewBox="0 0 192 163.0281329923274" height="163.0281329923274" width="192"><g><svg viewBox="0 0 192 163.0281329923274" height="163.0281329923274" width="192"><g><svg viewBox="0 0 192 163.0281329923274" height="163.0281329923274" width="192"><g><svg viewBox="0 0 192 163.0281329923274" height="163.0281329923274" width="192"><g id="textblocktransform"><svg viewBox="0 0 192 163.0281329923274" height="163.0281329923274" width="192" id="textblock"><g><svg viewBox="0 0 192 163.0281329923274" height="163.0281329923274" width="192"><g transform="matrix(1,0,0,1,0,0)"><svg width="192" viewBox="2.2 -32.7 39.099999999999994 33.2" height="163.0281329923274" data-palette-color="#ffffff"><path d="M3.85 0.5L3.85 0.5Q2.9 0.5 2.55-0.05 2.2-0.6 2.2-1.25L2.2-1.25Q2.2-4.35 2.83-8.35 3.45-12.35 4.35-16.3L4.35-16.3Q5.15-19.65 6.13-22.55 7.1-25.45 7.85-27.3L7.85-27.3Q8.95-29.9 10.38-31.28 11.8-32.65 13.7-32.65L13.7-32.65Q15.1-32.65 16.2-31.73 17.3-30.8 17.5-28.4L17.5-28.4Q17.8-25.5 18.2-22.55 18.6-19.6 19.1-17.18 19.6-14.75 20.15-13.45L20.15-13.45Q20.6-12.3 21.45-12.3L21.45-12.3Q22.4-12.3 23.1-13.5L23.1-13.5Q23.75-14.6 24.5-16.5 25.25-18.4 25.98-20.53 26.7-22.65 27.25-24.4L27.25-24.4Q27.9-26.3 28.73-28.23 29.55-30.15 30.85-31.43 32.15-32.7 34.1-32.7L34.1-32.7Q35.9-32.7 36.68-31.48 37.45-30.25 37.45-27.6L37.45-27.6Q37.45-25.55 37.3-23.3L37.3-23.3Q37.25-22 37.18-20.63 37.1-19.25 37.1-17.8L37.1-17.8Q37.1-15.55 37.33-13.05 37.55-10.55 38.23-8.35 38.9-6.15 40.25-4.65L40.25-4.65Q40.65-4.3 40.98-3.85 41.3-3.4 41.3-2.85L41.3-2.85Q41.3-1.6 39.98-0.58 38.65 0.45 36.95 0.45L36.95 0.45Q35.4 0.45 34.65-0.55 33.9-1.55 33.45-3.25L33.45-3.25Q32.95-5.35 32.75-7.75 32.55-10.15 32.55-12.4L32.55-12.4Q32.55-16 32.83-19.03 33.1-22.05 33.1-23.5L33.1-23.5Q33.1-24.3 32.95-24.68 32.8-25.05 32.2-25.05L32.2-25.05Q31.5-25.05 31.03-24.43 30.55-23.8 30.25-22.7L30.25-22.7Q29.6-20.6 28.8-18.2 28-15.8 27.13-13.5 26.25-11.2 25.25-9.4L25.25-9.4Q24.1-7.3 22.78-6.58 21.45-5.85 20.1-5.85L20.1-5.85Q18-5.85 16.93-7.18 15.85-8.5 15.35-10.1L15.35-10.1Q14.7-12.25 14.15-15.73 13.6-19.2 13.35-23.55L13.35-23.55Q13.25-25.4 12.15-25.4L12.15-25.4Q10.95-25.4 10.25-23.6L10.25-23.6Q9.65-21.8 9.1-19.38 8.55-16.95 8.22-14.33 7.9-11.7 7.9-9.15L7.9-9.15Q7.9-7 8.08-5.4 8.25-3.8 8.25-2.4L8.25-2.4Q8.25-1.4 7.48-0.75 6.7-0.1 5.65 0.2 4.6 0.5 3.85 0.5Z" opacity="1" transform="matrix(1,0,0,1,0,0)" fill="#ffffff" class="wordmark-text-0" data-fill-palette-color="primary" id="text-0"></path></svg></g></svg></g></svg></g></svg></g><g></g></svg></g></svg></g></svg></g></svg></g><defs></defs></svg><rect width="320" height="360" fill="none" stroke="none" visibility="hidden"></rect></g></svg></g></svg>